Coordinates
version=1
nRows=19
nColumns=33
inDegrees=yes

Units are S.I. units (second, meters, Newtons, ...)
Angles are in degrees.

endheader
time	ground_thorax_rot_x	ground_thorax_rot_y	ground_thorax_rot_z	ground_thorax_tx	ground_thorax_ty	ground_thorax_tz	clav_prot_r	clav_elev_r	scapula_abduction_r	scapula_elevation_r	scapula_upward_rot_r	scapula_winging_r	shoulder_elv_r	plane_of_elev_r	axial_rot_r	elbow_flexion_r	pro_sup_r	wrist_flex_r	wrist_dev_r	clav_prot_l	clav_elev_l	scapula_abduction_l	scapula_elevation_l	scapula_upward_rot_l	scapula_winging_l	shoulder_elv_l	plane_of_elev_l	axial_rot_l	elbow_flexion_l	pro_sup_l	wrist_flex_l	wrist_dev_l	
3.1100	30.807236	22.786468	33.252246	-67.709223	873.320349	-50.010031	1.822268	40.059234	38.330133	45.000000	10.553202	1679.023624	-460.029710	143.812438	-180.000000	1786.060589	68.803991	25.706522	14.183435	-5.578034	-45.000000	-41.571590	45.000000	-45.000000	5507.536691	-3326.217189	134.177335	-127.397669	1430.060423	41.690263	13.335829	-21.735168	
3.1200	30.808787	22.814289	33.276880	-67.721013	872.999049	-49.956877	1.839419	40.107438	38.391944	45.000000	10.498055	1678.898172	-460.092088	143.821102	-180.000000	1786.042273	68.531364	25.621025	14.227523	-5.704154	-45.000000	-41.559196	45.000000	-45.000000	5507.538827	-3326.340738	134.289643	-127.572914	1430.027846	41.703838	13.347924	-21.772892	
3.1300	30.820979	22.821002	33.300259	-67.695978	872.657236	-49.900794	1.913999	40.053796	38.421997	45.000000	10.478348	1678.756671	-460.191435	143.743529	-180.000000	1785.945682	68.264328	25.649745	14.243908	-5.880151	-45.000000	-41.432841	45.000000	-45.000000	5507.584002	-3326.386480	134.291582	-127.771157	1429.962688	41.733864	13.397456	-21.785753	
3.1400	30.818954	22.859900	33.337326	-67.596737	872.268953	-49.836829	1.919466	40.046453	38.429824	45.000000	10.459528	1678.640146	-460.282969	143.706120	-180.000000	1785.882147	68.076152	25.648887	14.259095	-5.961883	-45.000000	-41.364966	45.000000	-45.000000	5507.602052	-3326.461016	134.321952	-127.921494	1429.916948	41.768221	13.418853	-21.815118	
3.1500	30.811792	22.914911	33.385140	-67.410838	871.835691	-49.767373	1.900381	40.046690	38.417705	45.000000	10.452716	1678.533778	-460.378431	143.664586	-180.000000	1785.818831	67.939963	25.652888	14.269566	-6.003501	-45.000000	-41.302884	45.000000	-45.000000	5507.601588	-3326.530826	134.350873	-128.040910	1429.872897	41.804694	13.424697	-21.848862	
3.1600	30.800578	22.978673	33.441204	-67.120172	871.355356	-49.694420	1.858634	40.033380	38.401931	45.000000	10.463086	1678.434304	-460.474023	143.628030	-180.000000	1785.756119	67.833009	25.687810	14.255202	-6.020974	-45.000000	-41.254404	45.000000	-45.000000	5507.608494	-3326.598532	134.352700	-128.122055	1429.833920	41.842820	13.432772	-21.884757	
3.1700	30.784892	23.054203	33.509297	-66.712967	870.833197	-49.621951	1.803103	40.035597	38.379952	45.000000	10.490231	1678.341351	-460.569218	143.589303	-180.000000	1785.701505	67.737162	25.715452	14.245730	-6.023097	-45.000000	-41.215801	45.000000	-45.000000	5507.585016	-3326.662023	134.365352	-128.159820	1429.800086	41.872115	13.421388	-21.925307	
3.1800	30.771541	23.121452	33.580665	-66.180943	870.276707	-49.554303	1.734441	40.019617	38.374872	45.000000	10.541872	1678.258408	-460.660205	143.564162	-180.000000	1785.646954	67.609518	25.775412	14.213844	-6.032000	-45.000000	-41.184783	45.000000	-45.000000	5507.584744	-3326.722188	134.334748	-128.148725	1429.776021	41.896692	13.427322	-21.967988	
3.1900	30.756908	23.190098	33.661747	-65.516674	869.692031	-49.494908	1.641970	40.027389	38.371004	45.000000	10.624976	1678.189450	-460.746156	143.554009	-180.000000	1785.609621	67.444169	25.816749	14.200789	-6.030700	-45.000000	-41.168850	45.000000	-45.000000	5507.553608	-3326.784981	134.319221	-128.075702	1429.765143	41.910512	13.415695	-22.018682	
3.2000	30.742238	23.249360	33.750329	-64.714874	869.083833	-49.445934	1.522385	40.030857	38.380272	45.000000	10.751852	1678.133661	-460.824476	143.564738	-180.000000	1785.578186	67.220236	25.873769	14.189628	-6.026872	-45.000000	-41.158659	45.000000	-45.000000	5507.533545	-3326.841479	134.269673	-127.937263	1429.767807	41.924699	13.415571	-22.072969	
3.2100	30.722265	23.311748	33.858014	-63.772806	868.455712	-49.408287	1.389117	40.054361	38.383677	45.000000	10.923782	1678.083194	-460.901276	143.568035	-180.000000	1785.547684	66.949105	25.908582	14.219018	-6.019611	-45.000000	-41.141396	45.000000	-45.000000	5507.471161	-3326.883345	134.236133	-127.731975	1429.778354	41.938462	13.394411	-22.131675	
3.2200	30.697430	23.370768	33.980966	-62.691471	867.810383	-49.381627	1.238629	40.075000	38.405339	45.000000	11.133520	1678.036347	-460.968125	143.579826	-180.000000	1785.512522	66.624513	25.945348	14.260379	-6.015384	-45.000000	-41.127067	45.000000	-45.000000	5507.413101	-3326.916025	134.176927	-127.464043	1429.799524	41.960577	13.383361	-22.194577	
3.2300	30.665170	23.433008	34.120992	-61.475499	867.149421	-49.364514	1.098052	40.098697	38.441537	45.000000	11.381188	1677.966526	-461.032701	143.570007	-180.000000	1785.469903	66.260718	25.968512	14.337496	-6.028468	-45.000000	-41.102031	45.000000	-45.000000	5507.316383	-3326.927742	134.127634	-127.139524	1429.822041	41.988372	13.359365	-22.259117	
3.2400	30.622247	23.501929	34.277170	-60.133348	866.473942	-49.354683	0.957527	40.115770	38.499544	45.000000	11.654363	1677.883296	-461.087226	143.557097	-180.000000	1785.420039	65.860476	25.985378	14.427241	-6.052519	-45.000000	-41.079959	45.000000	-45.000000	5507.214532	-3326.925714	134.060239	-126.768257	1429.847880	42.021634	13.343935	-22.323308	
3.2500	30.576752	23.567615	34.437262	-58.676380	865.784707	-49.349342	0.854135	40.125225	38.590794	45.000000	11.954276	1677.754040	-461.146202	143.510494	-180.000000	1785.357377	65.435358	25.990858	14.546793	-6.112202	-45.000000	-41.036402	45.000000	-45.000000	5507.081459	-3326.899812	133.990964	-126.354576	1429.867585	42.055201	13.325999	-22.384667	
3.2600	30.532129	23.624930	34.592098	-57.118165	865.083001	-49.345486	0.774749	40.120915	38.717621	45.000000	12.277186	1677.592564	-461.207896	143.449582	-180.000000	1785.283950	64.985463	25.987934	14.675524	-6.201153	-45.000000	-40.982839	45.000000	-45.000000	5506.945311	-3326.861665	133.899916	-125.905119	1429.883165	42.084540	13.322573	-22.441989	
3.2700	30.492606	23.666036	34.736488	-55.473160	864.370967	-49.340162	0.729051	40.107696	38.879261	45.000000	12.630325	1677.388625	-461.280119	143.362800	-180.000000	1785.205540	64.520079	25.976182	14.826805	-6.321784	-45.000000	-40.905403	45.000000	-45.000000	5506.790228	-3326.804958	133.804354	-125.431003	1429.889021	42.102837	13.323335	-22.490856	
3.2800	30.449159	23.709426	34.882884	-53.755394	863.652037	-49.330654	0.681536	40.091008	39.047005	45.000000	13.000369	1677.183666	-461.350588	143.273883	-180.000000	1785.127545	64.049232	25.950569	14.985406	-6.440899	-45.000000	-40.831319	45.000000	-45.000000	5506.629369	-3326.749010	133.709690	-124.949752	1429.891656	42.103001	13.329343	-22.528489	
3.2900	30.405374	23.747846	35.028499	-51.977460	862.930930	-49.314619	0.645767	40.071305	39.230749	45.000000	13.376374	1676.970809	-461.423987	143.178811	-180.000000	1785.052605	63.584960	25.916532	15.146978	-6.567547	-45.000000	-40.754351	45.000000	-45.000000	5506.464172	-3326.692465	133.618609	-124.472146	1429.889190	42.083422	13.341818	-22.552332	
